# xmcd CD database file
#
# Track frame offsets:
#	150
#	30891
#	63198
#	82906
#	116254
#	146022
#	166754
#	192517
#	213099
#	237826
#	267452
#	306562
#
# Disc length: 4425 seconds
#
# Revision: 0
# Processed by: cddbd v1.5.1PL0 Copyright (c) Steve Scherf et al.
# Submitted via: CDex 1.51
#
DISCID=9a11470c
DTITLE=Laith Al-Deen - Laith Al-Deen - Live -  CD 01
DYEAR=2004
DGENRE=New Age
TTITLE0=Für alle (Intro)
TTITLE1=Viel davon (Live)
TTITLE2=Alles an Dir (Live)
TTITLE3=Labyrinth (Live) 
TTITLE4=Kann es sein (Live)
TTITLE5=Höher (Live)
TTITLE6=Jetzt, hier, immer (Live)
TTITLE7=Worauf wartest Du (Live)
TTITLE8=Kleine Helden (Live)
TTITLE9=Ich will nur wissen (Live)
TTITLE10=Mit mir (Live) 
TTITLE11=Dein Lied (Live)
EXTD=YEAR: 2004
EXTT0=
EXTT1=
EXTT2=
EXTT3=
EXTT4=
EXTT5=
EXTT6=
EXTT7=
EXTT8=
EXTT9=
EXTT10=
EXTT11=
PLAYORDER=
